<svg class="w-full h-full" fill="currentColor" xmlns="http://www.w3.org/2000/svg" viewBox="0 0 576 512">
    <!--!Font Awesome Pro 6.7.2 by @fontawesome - https://fontawesome.com License - https://fontawesome.com/license (Commercial License) Copyright 2025 Fonticons, Inc.-->
    <path d="M0 144c0-35.3 28.7-64 64-64l2.7 0C73.3 61.4 91.1 48 112 48l6.7 0C131 19.8 159.2 0 192 0s61 19.8 73.3 48l6.7 0c20.9 0 38.7 13.4 45.3 32l2.7 0c35.3 0 64 28.7 64 64l0 54.6c-11.2 3.2-21.9 7.4-32 12.6l0-67.2c0-17.7-14.3-32-32-32l0 16c0 17.7-14.3 32-32 32l-96 0-96 0c-17.7 0-32-14.3-32-32l0-16c-17.7 0-32 14.3-32 32l0 304c0 17.7 14.3 32 32 32l232.3 0c9.8 11.8 21 22.3 33.5 31.3c-3.2 .5-6.4 .7-9.8 .7L64 512c-35.3 0-64-28.7-64-64L0 144zm76.7 92.7c6.2-6.2 16.4-6.2 22.6 0L112 249.4l36.7-36.7c6.2-6.2 16.4-6.2 22.6 0s6.2 16.4 0 22.6c-16 16-32 32-48 48c-6.2 6.2-16.4 6.2-22.6 0l-24-24c-6.2-6.2-6.2-16.4 0-22.6zM88 368c0-13.3 10.7-24 24-24s24 10.7 24 24s-10.7 24-24 24s-24-10.7-24-24zM96 96l0 32 96 0 96 0 0-32c0-8.8-7.2-16-16-16l-18 0c-7.3 0-13.7-4.9-15.5-12c-5.3-20.7-24.1-36-46.5-36s-41.2 15.3-46.5 36c-1.8 7.1-8.2 12-15.5 12l-18 0c-8.8 0-16 7.2-16 16zm64 272c0-8.8 7.2-16 16-16l80.7 0c-.5 5.3-.7 10.6-.7 16s.2 10.7 .7 16L176 384c-8.8 0-16-7.2-16-16zM176 80c0-8.8 7.2-16 16-16s16 7.2 16 16s-7.2 16-16 16s-16-7.2-16-16zm16 192c0-8.8 7.2-16 16-16l64 0c7.3 0 13.5 4.9 15.4 11.6c-4.4 6.4-8.4 13-12 20c-1.1 .2-2.2 .4-3.4 .4l-64 0c-8.8 0-16-7.2-16-16zm96 96c0-79.5 64.5-144 144-144s144 64.5 144 144s-64.5 144-144 144s-144-64.5-144-144zm32 0c0 61.9 50.1 112 112 112s112-50.1 112-112s-50.1-112-112-112s-112 50.1-112 112zm32 0c0-8.8 7.2-16 16-16l48 0 0-48c0-8.8 7.2-16 16-16s16 7.2 16 16l0 48 48 0c8.8 0 16 7.2 16 16s-7.2 16-16 16l-48 0 0 48c0 8.8-7.2 16-16 16s-16-7.2-16-16l0-48-48 0c-8.8 0-16-7.2-16-16z"/>
</svg>