<svg class="w-full h-full" fill="currentColor" xmlns="http://www.w3.org/2000/svg" viewBox="0 0 640 512">
    <!--!Font Awesome Pro 6.7.2 by @fontawesome - https://fontawesome.com License - https://fontawesome.com/license (Commercial License) Copyright 2025 Fonticons, Inc.-->
    <path d="M0 256C0 164.5 48.8 80 128 34.3s176.8-45.7 256 0c60.3 34.8 103 92.1 119.9 157.9c-2.6-.1-5.3-.2-7.9-.2c-8.4 0-16.7 .6-24.8 1.7C445.7 105.2 367.1 39.3 272 32.6l0 95.4c0 8.8-7.2 16-16 16s-16-7.2-16-16l0-95.4C129 40.4 40.4 129 32.6 240l95.4 0c8.8 0 16 7.2 16 16s-7.2 16-16 16l-95.4 0C40.4 383 129 471.6 240 479.4l0-95.4c0-8.8 7.2-16 16-16s16 7.2 16 16l0 95.4c26.4-1.9 51.5-8.3 74.6-18.5c5.8 9.3 12.4 18 19.8 26.1c-75.7 36.2-164.9 33.1-238.4-9.3C48.8 432 0 347.5 0 256zM352 368c0-79.5 64.5-144 144-144s144 64.5 144 144s-64.5 144-144 144s-144-64.5-144-144zm32 0c0 61.9 50.1 112 112 112s112-50.1 112-112s-50.1-112-112-112s-112 50.1-112 112zm32 0c0-8.8 7.2-16 16-16l48 0 0-48c0-8.8 7.2-16 16-16s16 7.2 16 16l0 48 48 0c8.8 0 16 7.2 16 16s-7.2 16-16 16l-48 0 0 48c0 8.8-7.2 16-16 16s-16-7.2-16-16l0-48-48 0c-8.8 0-16-7.2-16-16z"/>
</svg>