<svg class="w-full h-full" fill="currentColor" xmlns="http://www.w3.org/2000/svg" viewBox="0 0 640 512">
    <!--!Font Awesome Pro 6.7.2 by @fontawesome - https://fontawesome.com License - https://fontawesome.com/license (Commercial License) Copyright 2025 Fonticons, Inc.-->
    <path d="M0 96C0 60.7 28.7 32 64 32l384 0c35.3 0 64 28.7 64 64l0 64c0 11.7-3.2 22.7-8.7 32.2c-2.4-.1-4.9-.2-7.3-.2c-37.7 0-72.6 11.8-101.2 32L64 224c-35.3 0-64-28.7-64-64L0 96zM0 352c0-35.3 28.7-64 64-64l275.2 0c-5.2 10.1-9.4 20.8-12.6 32L64 320c-17.7 0-32 14.3-32 32l0 64c0 17.7 14.3 32 32 32l275.2 0c5.9 11.4 12.9 22.2 21.1 32L64 480c-35.3 0-64-28.7-64-64l0-64zM32 96l0 64c0 17.7 14.3 32 32 32l384 0c17.7 0 32-14.3 32-32l0-64c0-17.7-14.3-32-32-32L64 64C46.3 64 32 78.3 32 96zM352 368c0-79.5 64.5-144 144-144s144 64.5 144 144s-64.5 144-144 144s-144-64.5-144-144zm32 0c0 61.9 50.1 112 112 112s112-50.1 112-112s-50.1-112-112-112s-112 50.1-112 112zm32 0c0-8.8 7.2-16 16-16l48 0 0-48c0-8.8 7.2-16 16-16s16 7.2 16 16l0 48 48 0c8.8 0 16 7.2 16 16s-7.2 16-16 16l-48 0 0 48c0 8.8-7.2 16-16 16s-16-7.2-16-16l0-48-48 0c-8.8 0-16-7.2-16-16z"/>
</svg>