<svg width="56" height="50" viewBox="0 0 56 50" fill="none" xmlns="http://www.w3.org/2000/svg">
<g clip-path="url(#clip0_33_58)">
<path d="M45.1658 28.3708C51.1494 28.3708 56 33.2126 56 39.1854C56 45.1581 51.1494 50 45.1658 50C39.1823 50 34.3317 45.1581 34.3317 39.1854C34.3317 33.2126 39.1823 28.3708 45.1658 28.3708ZM44.1474 31.3989C43.9921 31.3989 43.866 31.5247 43.866 31.6798V37.8874H37.6466C37.4913 37.8874 37.3652 38.0132 37.3652 38.1683V39.7694C37.3652 39.9244 37.4913 40.0503 37.6466 40.0503H43.866V46.2584C43.866 46.4135 43.9921 46.5393 44.1474 46.5393H45.7512C45.9065 46.5393 46.0326 46.4135 46.0326 46.2584V40.0503H52.2517C52.407 40.0503 52.5331 39.9244 52.5331 39.7694V38.1683C52.5331 38.0132 52.407 37.8874 52.2517 37.8874H46.0326V31.6798C46.0326 31.5247 45.9065 31.3989 45.7512 31.3989H44.1474Z" fill="white"/>
<path d="M25.0452 -0.0452271C38.8772 -0.0452271 50.0905 11.1679 50.0905 25C50.0905 25.6054 50.0685 26.2059 50.026 26.8006C48.8055 26.3138 47.4976 25.9998 46.1322 25.889C46.1443 25.5942 46.1508 25.2978 46.1508 25C46.1508 13.3437 36.7014 3.89447 25.0452 3.89447C13.389 3.89447 3.9397 13.3437 3.9397 25C3.9397 36.6562 13.389 46.1055 25.0452 46.1055C27.7152 46.1055 30.2693 45.6094 32.6207 44.7047C33.1562 45.9443 33.8721 47.0871 34.7355 48.1013C31.7545 49.353 28.4809 50.0452 25.0452 50.0452C11.2131 50.0452 0 38.832 0 25C0 11.1679 11.2131 -0.0452271 25.0452 -0.0452271Z" fill="white"/>
<path d="M25.0452 26.9663C26.5994 26.9663 27.8593 25.7087 27.8593 24.1573C27.8593 22.6059 26.5994 21.3483 25.0452 21.3483C23.4911 21.3483 22.2312 22.6059 22.2312 24.1573C22.2312 25.7087 23.4911 26.9663 25.0452 26.9663Z" fill="white"/>
<path d="M33.1217 12.2081L25.221 22.4622C24.7467 23.0777 24.8613 23.9612 25.4768 24.4355C26.0924 24.9098 26.9759 24.7953 27.4502 24.1797L35.3508 13.9257C35.8251 13.3101 35.7106 12.4266 35.095 11.9523C34.4795 11.478 33.596 11.5926 33.1217 12.2081Z" fill="white"/>
<path d="M24.2226 22.6745L15.4725 19.054C14.7546 18.757 13.9314 19.0971 13.6339 19.8137C13.3363 20.5302 13.677 21.3519 14.3949 21.6489L23.145 25.2694C23.8629 25.5664 24.686 25.2263 24.9836 24.5098C25.2812 23.7932 24.9405 22.9715 24.2226 22.6745Z" fill="white"/>
</g>
<defs>
<clipPath id="clip0_33_58">
<rect width="56" height="50" fill="white"/>
</clipPath>
</defs>
</svg>
