<svg width="199" height="178" viewBox="0 0 199 178" fill="none" xmlns="http://www.w3.org/2000/svg">
<path d="M160.5 101C181.763 101 199 118.237 199 139.5C199 160.763 181.763 178 160.5 178C139.237 178 122 160.763 122 139.5C122 118.237 139.237 101 160.5 101ZM156.881 111.78C156.329 111.78 155.881 112.228 155.881 112.78V134.879H133.78C133.228 134.879 132.78 135.327 132.78 135.879V141.579C132.78 142.131 133.228 142.579 133.78 142.579H155.881V164.68C155.881 165.232 156.329 165.68 156.881 165.68H162.58C163.132 165.68 163.58 165.232 163.58 164.68V142.579H185.68C186.232 142.579 186.68 142.131 186.68 141.579V135.879C186.68 135.327 186.232 134.879 185.68 134.879H163.58V112.78C163.58 112.228 163.132 111.78 162.58 111.78H156.881Z" fill="white"/>
<path d="M89 0C138.153 0 178 39.8467 178 89C178 91.1515 177.922 93.2851 177.771 95.3984C173.434 93.6688 168.786 92.5528 163.934 92.1592C163.977 91.1115 164 90.0583 164 89C164 47.5786 130.421 14 89 14C47.5786 14 14 47.5786 14 89C14 130.421 47.5786 164 89 164C98.4881 164 107.564 162.237 115.92 159.022C117.823 163.427 120.367 167.488 123.435 171.092C112.842 175.54 101.209 178 89 178C39.8467 178 0 138.153 0 89C0 39.8467 39.8467 0 89 0Z" fill="white"/>
<circle cx="89" cy="86" r="10" fill="white"/>
<rect x="86.573" y="82.287" width="56" height="10" rx="5" transform="rotate(-52.386 86.573 82.287)" fill="white"/>
<rect x="50.3636" y="65.9177" width="43.6597" height="10" rx="5" transform="rotate(22.5146 50.3636 65.9177)" fill="white"/>
</svg>
